<svg xmlns="http://www.w3.org/2000/svg" xmlns:xlink="http://www.w3.org/1999/xlink" id="svg" version="1.1" width="400" height="158.6750788643533" viewBox="0, 0, 400,158.6750788643533"><g id="svgg"><path id="path0" d="M301.500 1.614 C 300.262 2.498,291.058 8.683,281.045 15.358 C 261.157 28.616,261.833 28.111,261.833 29.709 C 261.833 31.074,257.001 23.649,300.750 89.500 C 313.387 108.521,326.759 128.658,330.465 134.250 C 339.192 147.417,339.127 147.333,340.587 147.333 C 341.724 147.333,343.516 146.193,369.381 129.003 C 384.211 119.147,397.167 110.558,398.173 109.917 L 400.000 108.750 400.000 102.625 C 400.000 99.256,399.957 96.500,399.905 96.500 C 399.590 96.500,393.205 100.685,370.914 115.501 C 341.765 134.876,344.196 133.397,342.630 132.704 C 341.566 132.234,341.948 132.782,327.214 110.583 C 319.791 99.400,305.446 77.800,295.336 62.583 C 276.574 34.346,276.171 33.715,276.168 32.617 C 276.164 31.016,275.115 31.789,297.750 16.715 C 315.030 5.208,319.949 1.884,322.000 0.334 C 322.410 0.023,322.273 0.018,313.083 0.013 L 303.750 0.007 301.500 1.614 M349.028 0.125 C 349.278 0.688,351.912 4.759,356.418 11.547 C 393.214 66.973,396.548 71.977,398.105 74.110 C 398.918 75.225,399.673 76.275,399.782 76.443 C 399.937 76.683,399.983 74.703,399.990 67.426 L 400.000 58.101 399.546 57.426 C 399.296 57.054,398.476 55.887,397.724 54.833 C 396.305 52.845,367.199 9.092,363.437 3.292 L 361.301 -0.000 355.137 -0.000 C 351.746 -0.000,348.997 0.056,349.028 0.125 M224.148 68.503 C 221.744 68.791,220.666 70.101,220.668 72.729 C 220.669 74.379,220.916 75.126,221.728 75.939 C 222.853 77.064,222.728 77.050,232.917 77.155 C 243.374 77.263,243.002 77.211,243.833 78.681 L 244.250 79.417 244.333 112.667 L 244.417 145.917 244.812 146.719 C 246.127 149.390,251.259 149.327,252.440 146.626 C 252.738 145.944,252.753 144.619,252.833 112.750 L 252.917 79.583 253.333 78.759 C 254.121 77.200,253.678 77.264,264.333 77.158 C 274.180 77.060,274.156 77.062,275.293 76.217 C 277.564 74.531,276.976 69.726,274.376 68.727 C 273.521 68.399,226.754 68.190,224.148 68.503 M164.186 68.750 C 163.247 69.043,162.421 69.849,162.068 70.818 C 161.812 71.519,161.778 74.219,161.658 102.750 C 161.509 138.597,161.604 136.580,159.890 140.394 C 158.505 143.474,158.559 144.602,160.165 146.164 C 163.881 149.778,167.288 147.523,169.155 140.213 C 169.846 137.507,169.881 136.870,169.983 125.000 L 170.083 113.417 170.500 112.583 C 170.808 111.968,171.113 111.641,171.667 111.333 L 172.417 110.917 186.333 110.833 C 201.713 110.741,200.842 110.806,201.955 109.663 C 203.311 108.270,203.311 104.730,201.955 103.337 C 200.842 102.194,201.713 102.259,186.333 102.167 C 171.186 102.076,171.760 102.114,170.896 101.146 C 170.099 100.256,170.083 100.038,170.083 89.833 C 170.083 79.584,170.122 78.944,170.780 78.161 C 171.754 77.004,170.211 77.092,191.167 77.000 C 208.933 76.922,210.124 76.898,210.750 76.616 C 213.786 75.247,213.575 69.679,210.451 68.751 C 209.244 68.392,165.336 68.392,164.186 68.750 M25.845 68.937 C 8.126 71.342,2.756 94.171,17.588 104.040 C 21.231 106.464,22.759 106.989,31.500 108.827 C 42.155 111.066,45.033 112.100,47.942 114.736 C 56.770 122.736,52.638 137.231,40.801 139.785 C 39.553 140.054,38.383 140.083,28.917 140.083 L 18.417 140.083 16.486 139.542 C 10.996 138.001,7.905 139.942,9.460 143.953 C 10.538 146.732,12.897 148.328,16.461 148.686 C 19.394 148.982,40.051 148.776,41.833 148.434 C 62.213 144.523,68.417 119.299,52.033 106.958 C 48.184 104.058,45.833 103.213,35.000 100.830 C 24.671 98.558,23.385 98.086,20.985 95.683 C 14.993 89.685,17.546 80.060,25.750 77.720 C 26.646 77.464,28.219 77.425,40.833 77.342 C 54.685 77.252,54.929 77.244,55.672 76.900 C 58.833 75.438,58.514 69.891,55.211 68.897 C 54.085 68.558,28.380 68.593,25.845 68.937 M105.750 68.779 C 98.477 69.688,93.729 71.231,88.769 74.298 C 68.355 86.923,63.256 114.252,77.833 132.912 C 93.481 152.943,122.780 153.917,139.532 134.963 C 154.500 118.026,152.300 91.627,134.740 77.463 C 126.755 71.022,115.289 67.587,105.750 68.779 M115.522 77.806 C 136.055 82.093,146.797 104.061,137.501 122.750 C 132.208 133.392,121.742 139.744,109.500 139.744 C 81.014 139.744,67.393 105.501,88.018 85.736 C 94.902 79.140,106.247 75.869,115.522 77.806 M293.492 138.051 C 288.555 139.442,288.244 146.467,293.047 148.107 C 298.125 149.841,302.131 143.922,298.725 139.717 C 297.615 138.346,295.187 137.573,293.492 138.051 " stroke="none" fill="#aea79f" fill-rule="evenodd"/></g></svg>